<?xml version="1.0" standalone="no"?>
<!DOCTYPE svg PUBLIC "-//W3C//DTD SVG 20010904//EN"
 "http://www.w3.org/TR/2001/REC-SVG-20010904/DTD/svg10.dtd">
<svg version="1.0" xmlns="http://www.w3.org/2000/svg"
 width="400.000000pt" height="400.000000pt" viewBox="0 0 400.000000 400.000000"
 preserveAspectRatio="xMidYMid meet">
<metadata>
Created by potrace 1.14, written by Peter Selinger 2001-2017
</metadata>
<g transform="translate(0.000000,400.000000) scale(0.100000,-0.100000)"
fill="#000000" stroke="none">
<path d="M1859 3996 c-2 -2 -38 -7 -79 -10 -41 -3 -86 -8 -100 -11 -14 -3 -38
-8 -55 -11 -41 -7 -147 -33 -165 -41 -8 -3 -19 -5 -24 -4 -4 1 -14 -4 -22 -10
-8 -6 -14 -9 -14 -6 0 4 -21 -3 -46 -13 -25 -11 -54 -20 -65 -20 -10 0 -19 -4
-19 -9 0 -7 -48 -22 -66 -20 -4 0 -10 -3 -13 -8 -3 -5 -50 -30 -103 -57 -54
-26 -98 -53 -98 -59 0 -6 -3 -7 -7 -4 -3 4 -15 0 -25 -10 -10 -9 -18 -12 -18
-7 0 5 -4 4 -8 -2 -4 -6 -33 -28 -65 -49 -33 -21 -61 -44 -64 -52 -3 -7 -9
-10 -14 -7 -5 3 -9 0 -9 -7 0 -7 -3 -10 -6 -6 -7 7 -20 -4 -166 -146 -60 -57
-105 -107 -101 -110 3 -4 -1 -7 -10 -7 -10 0 -17 -4 -17 -9 0 -5 -6 -16 -13
-23 -7 -7 -26 -31 -42 -53 -17 -22 -36 -46 -43 -53 -7 -8 -10 -18 -7 -23 4 -5
1 -9 -4 -9 -11 0 -59 -69 -57 -82 1 -3 -8 -17 -19 -30 -11 -13 -26 -34 -33
-47 -8 -13 -22 -39 -33 -57 -10 -19 -15 -34 -11 -34 4 0 2 -4 -3 -8 -10 -7
-76 -146 -79 -167 -1 -5 -5 -16 -9 -22 -5 -7 -6 -17 -3 -22 4 -5 1 -11 -4 -13
-6 -2 -15 -19 -20 -38 -5 -19 -23 -85 -39 -146 -30 -116 -41 -177 -46 -254 -2
-25 -6 -52 -9 -61 -7 -15 0 -324 8 -389 13 -111 19 -146 27 -167 5 -13 7 -23
4 -23 -2 0 1 -15 6 -32 6 -18 12 -42 14 -52 5 -22 24 -84 32 -106 3 -8 7 -21
9 -29 4 -21 44 -123 60 -152 7 -14 11 -29 7 -33 -3 -3 -1 -6 5 -6 6 0 13 -14
17 -30 4 -17 11 -30 16 -30 5 0 8 -3 7 -7 -1 -5 18 -42 42 -83 24 -41 45 -79
45 -83 0 -5 7 -14 16 -20 9 -7 17 -16 18 -22 5 -19 35 -65 43 -65 4 0 8 -7 8
-16 0 -8 5 -12 10 -9 6 3 10 -1 10 -10 0 -8 7 -18 15 -21 8 -4 13 -10 10 -14
-3 -4 9 -22 25 -40 17 -18 30 -36 30 -42 0 -5 5 -6 10 -3 6 3 10 1 10 -4 0
-18 42 -61 53 -54 6 3 7 2 4 -4 -4 -6 28 -41 69 -79 42 -38 85 -77 95 -87 11
-9 24 -17 30 -17 5 0 7 -4 4 -10 -3 -5 0 -10 8 -10 7 0 23 -9 35 -20 12 -11
26 -20 32 -20 5 0 10 -4 10 -10 0 -5 7 -10 15 -10 8 0 15 -4 15 -10 0 -5 7
-10 15 -10 8 0 15 -4 15 -9 0 -5 15 -16 34 -25 18 -8 39 -22 45 -30 7 -8 19
-12 27 -9 8 3 14 0 14 -6 0 -6 10 -15 23 -20 12 -5 55 -25 96 -45 41 -20 80
-36 88 -36 7 0 13 -5 13 -11 0 -5 4 -8 8 -5 5 3 21 -1 36 -9 39 -21 123 -45
130 -38 3 4 6 2 6 -4 0 -8 70 -30 120 -37 8 -1 20 -4 25 -8 61 -36 740 -43
806 -8 10 6 19 9 19 6 0 -2 16 0 36 6 20 5 45 12 55 14 49 11 77 18 99 27 25
9 95 31 102 32 3 0 10 3 14 7 4 5 16 8 26 8 10 0 18 4 18 8 0 5 6 9 13 9 16 1
81 26 87 34 6 7 53 23 59 20 2 -2 8 4 13 13 5 9 13 14 17 11 5 -2 14 2 21 10
7 8 16 15 21 15 11 0 113 63 117 73 2 4 10 7 18 7 8 0 14 4 14 9 0 5 11 12 25
15 14 4 23 10 20 15 -5 9 23 26 38 23 4 -1 7 5 7 13 0 8 3 14 8 14 19 -3 33 2
27 11 -3 6 -1 10 6 10 6 0 25 13 40 30 16 16 30 29 32 28 6 -5 45 37 41 44 -3
4 1 8 9 8 7 0 43 32 78 71 35 39 74 82 87 95 13 13 20 24 17 24 -3 0 3 8 13
18 32 35 52 62 52 72 0 6 5 10 11 10 5 0 7 5 4 10 -3 6 -2 10 3 10 9 0 59 75
61 93 1 4 9 15 19 25 9 9 36 58 60 107 24 50 50 102 57 116 8 14 12 29 8 32
-3 4 2 9 11 13 9 3 14 10 11 14 -3 4 2 24 10 44 8 20 12 36 8 36 -5 0 -2 4 4
8 7 5 14 20 15 35 1 15 7 27 12 27 5 0 7 3 3 6 -3 3 -1 18 5 33 10 26 16 49
24 86 2 11 11 49 19 85 28 116 28 624 0 755 -4 17 -7 38 -8 48 -1 9 -4 17 -7
17 -4 0 -7 6 -7 13 -1 25 -12 69 -30 115 -3 9 -7 19 -7 22 -9 40 -31 106 -37
110 -4 3 -10 18 -13 34 -3 15 -10 33 -15 40 -6 7 -8 16 -4 19 3 4 1 7 -5 7 -7
0 -11 3 -10 8 1 4 -8 27 -20 51 -12 25 -22 51 -22 58 0 7 -4 13 -9 13 -5 0
-14 14 -21 30 -7 17 -17 30 -22 30 -5 0 -7 4 -3 9 3 5 -2 16 -10 24 -8 9 -15
20 -15 26 0 6 -4 11 -10 11 -5 0 -10 7 -10 15 0 8 -5 15 -11 15 -5 0 -7 5 -4
10 3 6 1 10 -4 10 -6 0 -11 7 -11 15 0 8 -4 15 -9 15 -6 0 -25 25 -43 55 -18
30 -39 55 -46 55 -7 0 -10 5 -7 10 3 6 1 10 -6 10 -7 0 -10 3 -7 6 11 10 -280
294 -302 294 -5 0 -10 4 -10 8 0 4 -12 15 -27 24 -25 14 -41 27 -89 67 -7 5
-15 7 -18 4 -3 -4 -6 -1 -6 5 0 7 -5 12 -11 12 -6 0 -23 9 -37 19 -26 18 -237
131 -247 131 -2 1 -19 6 -37 13 -18 6 -36 10 -40 9 -5 -1 -8 3 -8 9 0 5 -4 7
-10 4 -5 -3 -10 -1 -10 6 0 7 -3 10 -6 7 -3 -4 -21 0 -40 8 -19 8 -36 14 -39
14 -8 0 -18 3 -75 20 -25 8 -49 15 -55 15 -5 1 -37 7 -70 15 -33 7 -68 13 -77
12 -10 0 -18 2 -18 6 0 8 -12 8 -271 17 -96 3 -177 3 -180 1z"/>
</g>
</svg>
